<svg width="70" height="74" viewBox="0 0 70 74" fill="none" xmlns="http://www.w3.org/2000/svg">
<rect y="9" width="70" height="65" rx="25" fill="#46A302"/>
<path d="M0 27C0 12.0883 12.0883 0 27 0H43C57.9117 0 70 12.0883 70 27V38C70 52.9117 57.9117 65 43 65H27C12.0883 65 0 52.9117 0 38V27Z" fill="#58CC02"/>
<path d="M32.7521 20.4116C33.6598 18.5295 36.3402 18.5295 37.2479 20.4116L39.8539 25.8152C40.225 26.5847 40.9639 27.1109 41.8125 27.2099L47.7906 27.9076C49.9269 28.1569 50.7684 30.8114 49.1658 32.2459L44.8845 36.0785C44.224 36.6697 43.9267 37.567 44.1035 38.4357L45.2468 44.053C45.6684 46.124 43.4857 47.7487 41.6228 46.7506L36.1786 43.8339C35.4424 43.4395 34.5576 43.4395 33.8214 43.8339L28.3772 46.7506C26.5143 47.7487 24.3316 46.124 24.7532 44.053L25.8965 38.4357C26.0733 37.567 25.776 36.6697 25.1155 36.0785L20.8342 32.2459C19.2316 30.8114 20.0731 28.1569 22.2094 27.9076L28.1875 27.2099C29.0361 27.1109 29.775 26.5847 30.1461 25.8152L32.7521 20.4116Z" fill="white"/>
</svg>
