<svg viewBox="0 0 146 307" fill="none" xmlns="http://www.w3.org/2000/svg"><rect x="54.8633" y="40.8297" width="54.0632" height="33.0781" fill="#3D3D3D"/><path d="M64.6545 69.3289C59.9179 73.8471 52.4154 73.6701 47.8972 68.9335L34.9768 55.3885C30.4586 50.652 30.6357 43.1495 35.3722 38.6313L49.6182 25.0422C54.3548 20.524 61.8573 20.701 66.3755 25.4376L79.2959 38.9825C83.8141 43.7191 83.637 51.2216 78.9004 55.7398L64.6545 69.3289Z" fill="#3D3D3D"/><path d="M104.431 69.0828C109.168 73.601 116.671 73.424 121.189 68.6874L134.109 55.1425C138.627 50.4059 138.45 42.9034 133.714 38.3852L119.468 24.7961C114.731 20.2779 107.229 20.4549 102.71 25.1915L89.7901 38.7364C85.2719 43.473 85.4489 50.9755 90.1855 55.4937L104.431 69.0828Z" fill="#3D3D3D"/><path d="M60.8594 21.8318C60.8594 15.2859 66.1659 9.97937 72.7118 9.97937H95.6008C102.147 9.97937 107.453 15.2859 107.453 21.8318V42.5867C107.453 49.1327 102.147 54.4392 95.6008 54.4392H72.7118C66.1659 54.4392 60.8594 49.1327 60.8594 42.5867V21.8318Z" fill="#3D3D3D"/><rect x="70.5039" y="130.255" width="26.7989" height="15.6327" fill="#FDB02A"/><path d="M109.819 69.9525C114.834 69.9525 118.898 74.0174 118.898 79.0317L118.898 120.569C118.898 126.461 114.122 131.237 108.23 131.237L60.7444 131.237C54.8525 131.237 50.0762 126.461 50.0762 120.569L50.0762 79.0317C50.0762 74.0174 54.1411 69.9525 59.1555 69.9525L109.819 69.9525Z" fill="#A46648"/><rect x="64.6328" y="83.0056" width="17.525" height="22.9836" rx="8.76248" fill="white"/><rect x="87.1172" y="83.0056" width="17.525" height="22.9836" rx="8.76248" fill="white"/><path fill-rule="evenodd" clip-rule="evenodd" d="M73.0426 93.6344C74.788 93.6344 76.2029 92.2195 76.2029 90.4742C76.2029 89.742 75.9539 89.068 75.5359 88.5322C75.7734 88.4868 76.0185 88.463 76.2691 88.463C78.4111 88.463 80.1476 90.1995 80.1476 92.3415V97.2255C80.1476 99.3675 78.4111 101.104 76.2691 101.104C74.1271 101.104 72.3906 99.3675 72.3906 97.2255V93.5671C72.601 93.6112 72.8191 93.6344 73.0426 93.6344Z" fill="#3D3D3D"/><path fill-rule="evenodd" clip-rule="evenodd" d="M89.129 93.6342C90.8743 93.6342 92.2892 92.2193 92.2892 90.474C92.2892 89.8068 92.0825 89.1879 91.7296 88.6779C92.1297 88.5384 92.5597 88.4625 93.0074 88.4625C95.1494 88.4625 96.8859 90.199 96.8859 92.341V97.225C96.8859 99.367 95.1494 101.103 93.0074 101.103C90.8654 101.103 89.1289 99.367 89.1289 97.225V93.6342C89.1289 93.6342 89.129 93.6342 89.129 93.6342Z" fill="#3D3D3D"/><path d="M81.6845 105.973C81.6845 107.555 82.9671 108.838 84.5493 108.838C86.1314 108.838 87.4141 107.555 87.4141 105.973C87.4141 104.391 84.6686 100.721 84.5493 100.721C84.4299 100.721 81.6845 104.391 81.6845 105.973Z" fill="#86401F"/><path d="M82.3983 64.7937C83.0219 57.4977 89.4419 52.0887 96.7378 52.7122V52.7122L96.4194 56.4382C95.7959 63.7342 89.3759 69.1432 82.0799 68.5197V68.5197L82.3983 64.7937Z" fill="#FDB02A"/><path d="M72.6327 56.3085C73.2562 63.6045 79.6763 69.0135 86.9722 68.39V68.39L86.6538 64.6639C86.0302 57.368 79.6102 51.9589 72.3143 52.5825V52.5825L72.6327 56.3085Z" fill="#FDB02A"/><rect width="67.301" height="17.3326" rx="8.66628" transform="matrix(0.355768 -0.934574 -0.934574 -0.355768 61.3633 208.344)" fill="#A46648"/><path d="M67.3505 253.684C66.9006 255.576 65.2106 256.912 63.266 256.912H45.9584C43.2064 256.912 41.1986 254.308 41.8979 251.646L62.5031 173.218C63.5237 169.333 67.0351 166.625 71.0515 166.625H84.1355C86.1333 166.625 87.6072 168.49 87.1451 170.434L67.3505 253.684Z" fill="#1CB0F6"/><path d="M79.2092 252.717C79.2116 255.034 81.0905 256.912 83.4075 256.912H101.932C104.293 256.912 106.189 254.966 106.129 252.606L104.114 173.643C103.991 168.851 100.072 165.03 95.278 165.03H83.3236C81.0033 165.03 79.123 166.912 79.1253 169.232L79.2092 252.717Z" fill="#1CB0F6"/><rect x="67.9531" y="160.882" width="31.9034" height="6.69972" fill="#FF4B4B"/><path d="M62.8477 155C62.8477 145.386 70.6414 137.593 80.2555 137.593H89.1475C98.7616 137.593 106.555 145.386 106.555 155V155C106.555 158.777 103.494 161.839 99.7166 161.839H69.6864C65.9095 161.839 62.8477 158.777 62.8477 155V155Z" fill="#FDB02A"/><rect x="80.2969" y="103.815" width="8.52085" height="5.89905" rx="2.94952" fill="#86401F"/><rect x="83.9062" y="261.697" width="25.8418" height="8.29489" rx="4.14745" fill="#FF4B4B"/><rect x="32.2227" y="261.697" width="25.8418" height="8.29489" rx="4.14745" fill="#FF4B4B"/><path d="M76.2461 167.582H82.9458V185.693C82.9458 186.791 82.0555 187.681 80.9571 187.681H78.2348C77.1365 187.681 76.2461 186.791 76.2461 185.693V167.582Z" fill="#3CC0FF"/><path d="M45.8164 66.675H85.7988V70.5944L49.7862 89.6157L45.8164 66.675Z" fill="#FDB02A"/><path d="M122.828 66.675H82.8457V70.5944L118.858 89.6157L122.828 66.675Z" fill="#FDB02A"/><rect x="70.8242" y="161.839" width="3.50938" height="5.74262" fill="#1CB0F6"/><rect x="86.7773" y="161.839" width="3.50938" height="7.01875" fill="#1CB0F6"/><path d="M80.5575 108.758C77.5359 103.726 70.1709 101.863 63.1836 103.726L64.6944 108.758C71.3669 110.125 82.9636 112.766 80.5575 108.758Z" fill="#A46648"/><path d="M73.9844 110.623C75.1974 112.856 77.9016 115.716 83.4847 115.716" stroke="#884727" stroke-width="1.96657" stroke-linecap="round"/><circle cx="49.9257" cy="97.2352" r="7.81634" fill="#A46648"/><rect width="34.0851" height="17.3326" rx="8.66628" transform="matrix(-0.965202 -0.261505 -0.261505 0.965202 124.848 147.145)" fill="#A46648"/><rect width="32.7247" height="17.1866" rx="8.59332" transform="matrix(-0.643415 0.765518 0.765518 0.643415 113.258 141.516)" fill="#A46648"/><path d="M61.8945 90.9195C61.8945 86.0381 65.8517 82.0809 70.7331 82.0809H97.7208C102.602 82.0809 106.559 86.0381 106.559 90.9195V97.0755H84.2269H61.8945V90.9195Z" fill="#A46648"/><rect x="86.7773" y="88.4616" width="14.6756" height="3.19034" rx="1.59517" fill="#884727"/><path d="M81.868 86.2591C79.9367 84.7762 74.6307 82.4309 68.8571 84.9124" stroke="#884727" stroke-width="1.98867" stroke-linecap="round" stroke-linejoin="round"/><rect x="101.121" y="158.568" width="20.375" height="12.4695" rx="6.23474" transform="rotate(33.946 101.121 158.568)" fill="#A46648"/><circle cx="118.519" cy="96.9158" r="7.81634" fill="#A46648"/><rect x="80.0742" y="191.191" width="1.59517" height="4.14745" rx="0.797586" transform="rotate(90 80.0742 191.191)" fill="#0395DB"/><path d="M77.2402 246.784C77.222 246.04 77.8207 245.426 78.5655 245.426H106.54C107.26 245.426 107.848 246 107.866 246.72L108.12 257.149C108.138 257.893 107.54 258.507 106.795 258.507H78.8199C78.1003 258.507 77.5121 257.933 77.4945 257.213L77.2402 246.784Z" fill="#4CC5FF"/><path d="M41.2557 246.435C41.4015 245.843 41.9329 245.426 42.5431 245.426H70.0922C70.9527 245.426 71.5852 246.233 71.3796 247.069L68.8132 257.498C68.6674 258.09 68.136 258.507 67.5259 258.507H39.9767C39.1162 258.507 38.4837 257.7 38.6894 256.864L41.2557 246.435Z" fill="#4CC5FF"/><path d="M99.5352 157.373C100.327 156.569 102.455 154.869 104.64 154.502" stroke="#995332" stroke-width="1.10482" stroke-linecap="round"/><path fill-rule="evenodd" clip-rule="evenodd" d="M79.7776 200.722L77.6016 211.472L78.3127 192.048C78.3307 191.555 78.7458 191.171 79.2386 191.191C79.7288 191.211 80.1108 191.623 80.0928 192.113L79.7776 200.722Z" fill="#0395DB"/><rect opacity="0.3" x="26.7422" y="270.037" width="88.0165" height="8.18294" rx="4.09147" fill="#AFAFAF"/></svg>