<svg viewBox="0 0 147 307" fill="none" xmlns="http://www.w3.org/2000/svg"><path fill-rule="evenodd" clip-rule="evenodd" d="M64.0172 202.331C68.8139 203.616 71.6605 208.546 70.3752 213.343L64.8118 234.106C63.5265 238.903 58.5961 241.749 53.7994 240.464C49.0027 239.179 46.1562 234.248 47.4414 229.452L53.0049 208.689C54.2901 203.892 59.2205 201.045 64.0172 202.331Z" fill="#FFC6B7"/><path fill-rule="evenodd" clip-rule="evenodd" d="M53.526 224.411C58.3227 223.126 63.2531 225.972 64.5384 230.769L68.186 244.382C69.4712 249.179 66.6247 254.109 61.828 255.395C57.0313 256.68 52.1009 253.833 50.8156 249.037L47.168 235.424C45.8827 230.627 48.7293 225.696 53.526 224.411Z" fill="#FFC6B7"/><path fill-rule="evenodd" clip-rule="evenodd" d="M85.8776 202.331C81.0809 203.616 78.2343 208.546 79.5195 213.343L85.083 234.106C86.3683 238.903 91.2987 241.749 96.0954 240.464C100.892 239.179 103.739 234.248 102.453 229.452L96.8899 208.689C95.6047 203.892 90.6742 201.045 85.8776 202.331Z" fill="#FFC6B7"/><path fill-rule="evenodd" clip-rule="evenodd" d="M96.3709 224.411C91.5742 223.126 86.6438 225.972 85.3586 230.769L81.711 244.382C80.4257 249.179 83.2723 254.109 88.069 255.395C92.8657 256.68 97.7961 253.833 99.0813 249.037L102.729 235.424C104.014 230.627 101.168 225.696 96.3709 224.411Z" fill="#FFC6B7"/><path fill-rule="evenodd" clip-rule="evenodd" d="M45.5991 259.611H64.8667C67.603 259.611 69.8213 261.829 69.8213 264.566C69.8213 267.302 67.603 269.52 64.8667 269.52H45.5991C42.8628 269.52 40.6445 267.302 40.6445 264.566C40.6445 261.829 42.8628 259.611 45.5991 259.611Z" fill="#FF4B4B"/><path fill-rule="evenodd" clip-rule="evenodd" d="M85.7553 259.611H105.023C107.759 259.611 109.978 261.829 109.978 264.566C109.978 267.302 107.759 269.52 105.023 269.52H85.7553C83.019 269.52 80.8008 267.302 80.8008 264.566C80.8008 261.829 83.019 259.611 85.7553 259.611Z" fill="#FF4B4B"/><path fill-rule="evenodd" clip-rule="evenodd" d="M29.5558 142.744H119.707C125.697 142.744 131.049 146.484 133.11 152.109L139.426 169.351C142.858 178.721 138.045 189.099 128.675 192.532C126.684 193.261 124.58 193.634 122.46 193.634H26.8024C16.8237 193.634 8.73438 185.545 8.73438 175.566C8.73438 173.446 9.10753 171.342 9.83677 169.351L16.1529 152.109C18.2132 146.484 23.5659 142.744 29.5558 142.744Z" fill="#FF4B4B"/><path d="M22.4648 126.461C22.2441 126.461 22.0325 126.55 21.8774 126.707C21.7222 126.864 21.6364 127.076 21.6391 127.297L21.6438 127.674L21.6437 127.674L21.644 127.684C21.8548 136.267 28.8783 143.16 37.512 143.16H110.362C119.128 143.16 126.235 136.053 126.235 127.287C126.235 126.831 125.865 126.461 125.409 126.461H22.4648Z" fill="#FFB100" stroke="#FFB100" stroke-width="1.65151" stroke-linejoin="round"/><path fill-rule="evenodd" clip-rule="evenodd" d="M49.9883 56.7714H98.4327C106.946 56.7714 113.847 63.6725 113.847 72.1855V129.621H34.5742V72.1855C34.5742 63.6725 41.4754 56.7714 49.9883 56.7714Z" fill="#FFB100"/><path fill-rule="evenodd" clip-rule="evenodd" d="M44.3664 145.036H104.971C113.991 145.036 121.303 152.348 121.303 161.367C121.303 162.579 121.168 163.787 120.901 164.968L112.024 204.238C110.341 211.682 103.726 216.968 96.094 216.968H53.2437C45.6115 216.968 38.997 211.682 37.3141 204.238L28.4368 164.968C26.4479 156.171 31.9676 147.426 40.7653 145.438C41.9471 145.17 43.1549 145.036 44.3664 145.036Z" fill="#FF4B4B"/><path fill-rule="evenodd" clip-rule="evenodd" d="M114.426 193.607L112.023 204.238C110.34 211.682 103.726 216.968 96.0934 216.968H53.2431C45.6108 216.968 38.9963 211.682 37.3134 204.238L34.9102 193.607H114.426Z" fill="#D22121"/><path fill-rule="evenodd" clip-rule="evenodd" d="M51.2591 208.787L72.8937 213.782C73.5849 213.941 74.0159 214.631 73.8563 215.322L71.1319 227.123C70.9723 227.814 70.2826 228.245 69.5914 228.085L47.9568 223.091C47.2655 222.931 46.8346 222.241 46.9941 221.55L49.7185 209.75C49.8781 209.058 50.5679 208.627 51.2591 208.787Z" fill="#D22121"/><path fill-rule="evenodd" clip-rule="evenodd" d="M97.9429 208.787L76.3083 213.782C75.6171 213.941 75.1861 214.631 75.3457 215.322L78.0701 227.123C78.2297 227.814 78.9194 228.245 79.6107 228.085L101.245 223.091C101.936 222.931 102.367 222.241 102.208 221.55L99.4835 209.75C99.3239 209.058 98.6342 208.627 97.9429 208.787Z" fill="#D22121"/><path fill-rule="evenodd" clip-rule="evenodd" d="M54.3911 67.4146H92.7429C100.749 67.4146 107.24 73.9049 107.24 81.9112V144.669H39.8945V81.9112C39.8945 73.9049 46.3849 67.4146 54.3911 67.4146Z" fill="#FFC6B7"/><path fill-rule="evenodd" clip-rule="evenodd" d="M64.2888 76.8709C69.0672 76.8709 72.9409 80.7446 72.9409 85.523V90.7858C72.9409 95.5642 69.0672 99.4379 64.2888 99.4379C59.5104 99.4379 55.6367 95.5642 55.6367 90.7858V85.523C55.6367 80.7446 59.5104 76.8709 64.2888 76.8709Z" fill="white"/><path fill-rule="evenodd" clip-rule="evenodd" d="M84.656 76.8709C89.4344 76.8709 93.3081 80.7446 93.3081 85.523V90.7858C93.3081 95.5642 89.4344 99.4379 84.656 99.4379C79.8776 99.4379 76.0039 95.5642 76.0039 90.7858V85.523C76.0039 80.7446 79.8776 76.8709 84.656 76.8709Z" fill="white"/><path fill-rule="evenodd" clip-rule="evenodd" d="M66.6773 82.0092C68.8225 82.0092 70.5616 83.7482 70.5616 85.8935V90.7723C70.5616 92.9175 68.8225 94.6566 66.6773 94.6566C64.532 94.6566 62.793 92.9175 62.793 90.7723V85.8935C62.793 85.809 62.7957 85.7251 62.801 85.642C62.9468 85.667 63.0978 85.6792 63.2517 85.6792C64.8226 85.6792 66.096 84.4058 66.096 82.8349C66.096 82.5699 66.0598 82.3134 65.9919 82.07C66.2139 82.0299 66.4432 82.0092 66.6773 82.0092Z" fill="#3D3D3D"/><path fill-rule="evenodd" clip-rule="evenodd" d="M82.275 81.9563C84.4202 81.9563 86.1593 83.6954 86.1593 85.8406V90.7194C86.1593 92.8647 84.4202 94.6037 82.275 94.6037C80.1297 94.6037 78.3906 92.8647 78.3906 90.7194V85.8406C78.3906 85.7561 78.3933 85.6723 78.3986 85.5892C78.5445 85.6141 78.6955 85.6263 78.8494 85.6263C80.4202 85.6263 81.6937 84.3529 81.6937 82.7821C81.6937 82.517 81.6574 82.2605 81.5896 82.0171C81.8116 81.977 82.0408 81.9563 82.275 81.9563Z" fill="#3D3D3D"/><path fill-rule="evenodd" clip-rule="evenodd" d="M89.2258 92.0211C96.537 92.0211 103.048 95.4476 107.24 100.782L107.24 129.055C103.048 134.39 96.537 137.816 89.2258 137.816C83.8673 137.816 78.9387 135.976 75.0378 132.892C71.1376 135.976 66.2091 137.816 60.8506 137.816C51.4931 137.816 43.4466 132.203 39.8945 124.16V105.677C43.4466 97.6342 51.4931 92.0211 60.8506 92.0211C66.2091 92.0211 71.1376 93.8617 75.0385 96.9452C78.9387 93.8617 83.8673 92.0211 89.2258 92.0211Z" fill="#FFC6B7"/><path fill-rule="evenodd" clip-rule="evenodd" d="M46.8683 72.2773V83.1039C46.8683 87.2088 43.6205 90.5552 39.5543 90.7134L39.4961 81.512C39.4961 76.3548 42.189 71.8267 46.2455 69.257C46.6464 70.1832 46.8683 71.2043 46.8683 72.2773ZM107.638 81.5122L107.581 90.6497C103.864 90.1448 101 86.959 101 83.1041V72.2775C101 71.3518 101.165 70.4646 101.468 69.6439C105.199 72.2663 107.638 76.6045 107.638 81.5122Z" fill="#FFB100"/><path d="M57.4333 100.416C60.6066 99.3651 64.0028 100.775 65.5524 103.607C66.577 105.018 68.069 106.334 70.1591 106.795L70.4964 106.833V106.833L70.9593 106.877C74.6524 107.261 77.368 110.538 77.0432 114.251C76.7151 118.001 73.4091 120.775 69.6589 120.447C61.3813 119.723 55.3875 115.922 53.1051 109.029C51.9219 105.455 53.8596 101.599 57.4333 100.416Z" fill="#702323"/><path d="M65.5508 103.607C66.5754 105.018 68.0675 106.334 70.1576 106.795L70.4949 106.833L70.9577 106.877L71.0661 106.889C70.4355 107.429 69.6168 107.754 68.722 107.754H65.9153C64.4355 107.754 63.1637 106.864 62.6069 105.589C62.0512 106.864 60.7794 107.754 59.2996 107.754H56.493C54.8196 107.754 53.4122 106.615 53.0039 105.07C53.5912 102.953 55.1894 101.158 57.4317 100.416C60.6051 99.3651 64.0012 100.775 65.5508 103.607Z" fill="white"/><path d="M74.2368 113.178C75.2118 113.178 76.1604 113.292 77.0701 113.505C77.0752 113.752 77.0671 114 77.0452 114.251C76.7171 118.001 73.411 120.775 69.6609 120.447C67.4805 120.256 65.4585 119.852 63.6211 119.234C65.768 115.609 69.7186 113.178 74.2368 113.178Z" fill="#B23232"/><path fill-rule="evenodd" clip-rule="evenodd" d="M74.4082 104.115C76.5365 104.115 78.2617 102.39 78.2617 100.263C78.2617 98.1358 74.4082 93.1047 74.4082 93.1047L73.9219 93.7629C72.8858 95.1973 70.5547 98.6085 70.5547 100.263C70.5547 102.39 72.28 104.115 74.4082 104.115Z" fill="#F3A577"/><circle cx="36.8654" cy="92.646" r="7.43181" fill="#FFC6B7"/><circle cx="110.822" cy="92.646" r="7.43181" fill="#FFC6B7"/><path fill-rule="evenodd" clip-rule="evenodd" d="M34.7605 64.1114H113.652C114.97 64.1114 116.038 65.1794 116.038 66.4969V71.4514C116.038 72.7689 114.97 73.837 113.652 73.837H34.7605C33.443 73.837 32.375 72.7689 32.375 71.4514V66.4969C32.375 65.1794 33.443 64.1114 34.7605 64.1114Z" fill="#FF4B4B"/><path fill-rule="evenodd" clip-rule="evenodd" d="M74.2104 38.9718C83.3315 38.9718 90.7256 46.3659 90.7256 55.4869C90.7256 64.608 83.3315 72.0021 74.2104 72.0021C65.0894 72.0021 57.6953 64.608 57.6953 55.4869C57.6953 46.3659 65.0894 38.9718 74.2104 38.9718Z" fill="#FFB100"/><path d="M56.8846 43.3315L72.6701 60.5323C73.4983 61.4543 73.1895 62.9167 72.0603 63.4204C66.6348 65.8408 60.1623 64.4774 56.0803 59.9329C51.9984 55.3885 51.3223 48.7934 54.2907 43.6376C54.9085 42.5645 56.0565 42.4095 56.8846 43.3315Z" fill="#FFB100"/><path fill-rule="evenodd" clip-rule="evenodd" d="M38.7959 136.228H108.71C109.825 136.228 110.728 137.131 110.728 138.246V145.219C110.728 146.334 109.825 147.238 108.71 147.238H38.7959C37.6811 147.238 36.7773 146.334 36.7773 145.219V138.246C36.7773 137.131 37.6811 136.228 38.7959 136.228Z" fill="#FF4B4B"/><path fill-rule="evenodd" clip-rule="evenodd" d="M72.0078 135.861H76.9624V193.678H72.0078V135.861Z" fill="#EBE3E3"/><path fill-rule="evenodd" clip-rule="evenodd" d="M72.247 135.861H76.7239C77.4022 135.861 77.9922 136.325 78.1511 136.985L81.1137 149.279C81.3036 150.068 80.8186 150.86 80.0304 151.05C79.9178 151.078 79.8023 151.091 79.6865 151.091H69.2844C68.4737 151.091 67.8164 150.434 67.8164 149.623C67.8164 149.507 67.8301 149.392 67.8573 149.279L70.8198 136.985C70.9787 136.325 71.5687 135.861 72.247 135.861Z" fill="#EBE3E3"/><path fill-rule="evenodd" clip-rule="evenodd" d="M34.576 120.368C34.576 121.824 34.5552 125.652 30.3555 125.652C33.0816 128.317 33.3655 127.984 33.3655 127.984L35.3275 126.946L35.8605 122.541C35.8605 122.541 34.576 118.912 34.576 120.368Z" fill="#FFB100"/><path fill-rule="evenodd" clip-rule="evenodd" d="M113.845 120.271L113.851 120.831C113.887 122.503 114.258 125.652 118.068 125.652L117.398 126.296C116.002 127.614 115.222 128.177 115.058 127.984L113.096 126.946L112.562 122.541L112.903 121.608C113.506 120.019 113.82 119.573 113.845 120.271V120.271Z" fill="#FFB100"/><path fill-rule="evenodd" clip-rule="evenodd" d="M18.8547 136.686L31.1708 138.088C37.2049 138.775 41.7627 143.881 41.7627 149.954V152.321C41.7627 158.917 36.416 164.264 29.8204 164.264H21.1845C14.5889 164.264 9.24219 158.917 9.24219 152.321V145.267C9.24219 140.497 13.1086 136.631 17.8781 136.631C18.2044 136.631 18.5305 136.649 18.8547 136.686Z" fill="#FFC6B7"/><path fill-rule="evenodd" clip-rule="evenodd" d="M9.17857 150.351H29.3127C32.5287 150.351 35.1358 152.958 35.1358 156.174C35.1358 159.39 32.5287 161.997 29.3127 161.997H9.17857C5.96256 161.997 3.35547 159.39 3.35547 156.174C3.35547 152.958 5.96256 150.351 9.17857 150.351Z" fill="#FFC6B7"/><path fill-rule="evenodd" clip-rule="evenodd" d="M121.844 161.109C133.427 161.109 142.817 170.499 142.817 182.082C142.817 193.665 133.427 203.055 121.844 203.055C110.261 203.055 100.871 193.665 100.871 182.082C100.871 170.499 110.261 161.109 121.844 161.109Z" fill="#FF4B4B"/><path fill-rule="evenodd" clip-rule="evenodd" d="M110.661 154.864L99.2931 159.806C93.7235 162.227 90.8577 168.442 92.6333 174.25L93.3255 176.514C95.2539 182.821 101.93 186.371 108.238 184.443L116.496 181.918C122.804 179.989 126.353 173.313 124.425 167.006L122.362 160.26C120.968 155.698 116.14 153.131 111.579 154.526C111.267 154.621 110.961 154.734 110.661 154.864Z" fill="#FFC6B7"/><path fill-rule="evenodd" clip-rule="evenodd" d="M113.989 170.188L122.3 165.954C125.165 164.494 128.672 165.633 130.132 168.498C131.592 171.364 130.452 174.87 127.587 176.33L119.277 180.565C116.411 182.025 112.905 180.885 111.445 178.02C109.984 175.154 111.124 171.648 113.989 170.188Z" fill="#FFC6B7"/><path fill-rule="evenodd" clip-rule="evenodd" d="M8.76847 162.066H38.9696C39.7327 162.066 40.3514 162.684 40.3514 163.447V185.062C40.3514 194.165 32.972 201.544 23.869 201.544C14.7661 201.544 7.38672 194.165 7.38672 185.062V163.447C7.38672 162.684 8.00535 162.066 8.76847 162.066Z" fill="#FF4B4B"/><rect opacity="0.3" x="30.1172" y="270.037" width="88.0165" height="8.18294" rx="4.09147" fill="#AFAFAF"/></svg>