<svg viewBox="0 0 145 307" fill="none" xmlns="http://www.w3.org/2000/svg"><path fill-rule="evenodd" clip-rule="evenodd" d="M69.918 265.021C69.918 262.316 72.1101 260.124 74.8142 260.124H89.4033C92.1074 260.124 94.2995 262.316 94.2995 265.021C94.2995 267.725 92.1074 269.917 89.4033 269.917H74.8142C72.1101 269.917 69.918 267.725 69.918 265.021Z" fill="#593F86"/><path fill-rule="evenodd" clip-rule="evenodd" d="M53.8789 265.021C53.8789 262.316 56.071 260.124 58.7751 260.124H73.3643C76.0684 260.124 78.2605 262.316 78.2605 265.021C78.2605 267.725 76.0684 269.917 73.3643 269.917H58.7751C56.071 269.917 53.8789 267.725 53.8789 265.021Z" fill="#593F86"/><path fill-rule="evenodd" clip-rule="evenodd" d="M76.6018 54.4955C95.9581 54.4955 112.434 68.585 115.438 87.7067L124.451 145.07C124.618 146.134 123.891 147.132 122.827 147.299C122.727 147.315 122.626 147.323 122.524 147.323H34.747C33.67 147.323 32.7969 146.45 32.7969 145.372C32.7969 145.3 32.8009 145.227 32.809 145.155L39.234 87.9044C41.369 68.8793 57.4573 54.4955 76.6018 54.4955Z" fill="#A570FF"/><path fill-rule="evenodd" clip-rule="evenodd" d="M65.4415 130.218H81.4844C82.1748 130.218 82.7345 130.778 82.7345 131.468V191.887C82.7345 192.578 82.1748 193.137 81.4844 193.137H65.4415C64.7511 193.137 64.1914 192.578 64.1914 191.887V131.468C64.1914 130.778 64.7511 130.218 65.4415 130.218Z" fill="#593F86"/><path fill-rule="evenodd" clip-rule="evenodd" d="M111.143 89.4502L114.016 89.7521C118.086 90.1799 121.039 93.8264 120.611 97.8967C120.183 101.967 116.537 104.92 112.466 104.492L109.594 104.19C105.523 103.762 102.57 100.116 102.998 96.0455C103.426 91.9752 107.072 89.0224 111.143 89.4502Z" fill="#FFC6B7"/><path fill-rule="evenodd" clip-rule="evenodd" d="M83.7443 60.4333C100.015 62.1434 112.406 75.7993 112.532 92.1588L112.737 118.673C112.804 127.44 105.752 134.602 96.9852 134.669C96.3902 134.674 95.7953 134.645 95.2035 134.583L55.4506 130.405C46.7315 129.488 40.4062 121.677 41.3226 112.958C41.4015 112.207 41.5339 111.463 41.7188 110.731L48.1454 85.2806C52.1813 69.2977 67.35 58.7102 83.7443 60.4333Z" fill="#FFC6B7"/><path fill-rule="evenodd" clip-rule="evenodd" d="M83.7441 58.4376C99.221 60.0643 112.814 74.3061 114.211 89.7722L89.9263 87.22C77.0726 85.8691 67.7479 74.3539 69.0988 61.5003L69.2899 59.679C73.8021 58.351 78.7154 57.9091 83.7441 58.4376Z" fill="#A570FF"/><path fill-rule="evenodd" clip-rule="evenodd" d="M80.2119 96.1274C80.0345 96.7137 79.9096 97.3252 79.8432 97.957L79.1282 104.76C78.8516 107.392 80.761 109.75 83.3931 110.026L88.3971 110.552C93.7929 111.119 98.6267 107.205 99.1938 101.809C99.1938 101.809 99.4493 99.3787 99.577 98.1634C99.4119 95.9369 82.1918 92.2197 80.2119 96.1274Z" fill="white"/><path fill-rule="evenodd" clip-rule="evenodd" d="M98.414 96.7499C98.1594 99.1723 95.9892 100.93 93.5668 100.675C91.1444 100.42 89.3871 98.2503 89.6417 95.8279L98.414 96.7499Z" fill="#3D3D3D"/><path fill-rule="evenodd" clip-rule="evenodd" d="M80.2109 96.1283C81.5354 91.7508 85.7887 88.7735 90.4963 89.2002L90.6391 89.2142L99.1657 90.1104C99.8371 90.181 100.328 90.7706 100.282 91.4387L100.278 91.4843L99.5762 98.1638L80.2109 96.1283Z" fill="#A570FF"/><path fill-rule="evenodd" clip-rule="evenodd" d="M77.3842 95.9162C77.4283 96.499 77.4208 97.0939 77.3575 97.6959L76.6643 104.291C76.3757 107.038 73.9152 109.03 71.1687 108.742L66.3718 108.237C60.9761 107.67 57.0617 102.836 57.6288 97.4408C57.6288 97.4408 57.9604 94.2863 58.1262 92.709C58.3221 90.8446 75.4143 91.7264 77.3842 95.9162Z" fill="white"/><path fill-rule="evenodd" clip-rule="evenodd" d="M76.832 94.4813C76.5774 96.9037 74.4072 98.661 71.9848 98.4064C69.5624 98.1518 67.8051 95.9817 68.0597 93.5593L76.832 94.4813Z" fill="#3D3D3D"/><path fill-rule="evenodd" clip-rule="evenodd" d="M60.0887 86.0032L68.6153 86.8993C73.4092 87.4032 77.0338 91.2751 77.3849 95.9168L58.0039 93.8798L58.7147 87.1157C58.7869 86.4291 59.402 85.931 60.0887 86.0032Z" fill="#A570FF"/><path fill-rule="evenodd" clip-rule="evenodd" d="M95.0626 107.888C104.057 108.834 110.867 116.073 111.574 124.77C109.23 130.535 103.595 134.619 96.9852 134.67C96.3902 134.674 95.7953 134.645 95.2035 134.583L75.7022 132.534C74.7914 129.996 74.4233 127.219 74.724 124.358C75.7923 114.194 84.8982 106.82 95.0626 107.888Z" fill="#FFC6B7"/><path d="M83.2832 120.967C86.6747 115.827 90.1177 113.954 93.4013 116.049C94.0006 116.431 94.1765 117.227 93.7942 117.826C93.4119 118.426 92.6161 118.601 92.0168 118.219C90.2754 117.108 88.1508 118.264 85.4319 122.385C85.0404 122.978 84.2421 123.142 83.6487 122.75C83.0554 122.359 82.8917 121.56 83.2832 120.967Z" fill="#EE9583"/><path fill-rule="evenodd" clip-rule="evenodd" d="M76.5004 115.801C78.6747 116.029 80.6216 114.462 80.8488 112.3C81.076 110.138 77.6764 104.611 77.6764 104.611L77.1371 105.197C75.9401 106.525 73.153 109.778 72.9749 111.472C72.7477 113.634 74.3261 115.572 76.5004 115.801Z" fill="#EE9583"/><path fill-rule="evenodd" clip-rule="evenodd" d="M53.5698 65.127L55.6102 63.153L66.8827 58.4688C68.0762 57.9729 69.4458 58.5384 69.9418 59.7319C70.06 60.0165 70.1209 60.3216 70.1209 60.6299V131.929C70.1209 133.006 69.2478 133.879 68.1708 133.879H38.9417C37.6493 133.879 36.6016 132.832 36.6016 131.539C36.6016 131.442 36.6076 131.345 36.6196 131.249L41.9878 88.319C43.0913 79.494 47.1778 71.3111 53.5698 65.127Z" fill="#A570FF"/><path fill-rule="evenodd" clip-rule="evenodd" d="M65.4415 177.722H81.4844C82.1748 177.722 82.7345 178.282 82.7345 178.972V252.728C82.7345 253.418 82.1748 253.978 81.4844 253.978H65.4415C64.7511 253.978 64.1914 253.418 64.1914 252.728V178.972C64.1914 178.282 64.7511 177.722 65.4415 177.722Z" fill="#A570FF"/><path fill-rule="evenodd" clip-rule="evenodd" d="M73.1372 138.144H74.0163C77.2165 138.144 80.2116 139.719 82.0247 142.356L100.765 169.614C103.081 172.983 102.228 177.592 98.859 179.908C97.625 180.756 96.1628 181.21 94.6653 181.21H52.4882C48.4 181.21 45.0859 177.896 45.0859 173.808C45.0859 172.31 45.5401 170.848 46.3885 169.614L65.1289 142.356C66.9419 139.719 69.937 138.144 73.1372 138.144Z" fill="#593F86"/><path fill-rule="evenodd" clip-rule="evenodd" d="M60.4327 164.177L70.8665 167.974C73.1074 168.79 74.2628 171.268 73.4472 173.509C72.6316 175.75 70.1537 176.905 67.9128 176.09L57.479 172.292C55.2381 171.476 54.0827 168.998 54.8983 166.758C55.7139 164.517 58.1918 163.361 60.4327 164.177Z" fill="#FFC6B7"/><path fill-rule="evenodd" clip-rule="evenodd" d="M63.5197 164.284C64.748 162.239 67.4008 161.578 69.4449 162.806L78.9623 168.525C81.0065 169.753 81.6679 172.406 80.4396 174.45C79.2114 176.494 76.5586 177.156 74.5145 175.927L64.997 170.209C62.9529 168.98 62.2915 166.328 63.5197 164.284Z" fill="#FFC6B7"/><rect opacity="0.3" x="41.457" y="270.037" width="62.1277" height="8.18292" rx="4.09146" fill="#AFAFAF"/></svg>